# xmcd
#
# Track frame offsets:
#	150
#	19077
#	34153
#	49747
#	66952
#	84308
#	99015
#	115320
#	130222
#	146164
#	161163
#	174937
#	188305
#	201880
#
# Disc length: 2936 seconds
#
# Revision: 1
# Processed by: cddbd v1.5.1PL0 Copyright (c) Steve Scherf et al.
# Submitted via: audiograbber 1.83.01
#
DISCID=b50b760e
DTITLE=Varioius - SD101
DYEAR=1900
DGENRE=Karaoke Country
TTITLE0=Shania Twain - I'm Gonna Getcha Good
TTITLE1=Darryl Worley - Family Tree
TTITLE2=Mark Willis - Nineteen Something
TTITLE3=Joe Nichols - Brokenheartsville
TTITLE4=Lee Ann Womack - Forever Everyday
TTITLE5=Cyndi Thompson - If You Could Only See
TTITLE6=Holly Lamar - These Are The Days
TTITLE7=Daryle Singletary - I'd  Love To Lay You Down
TTITLE8=Tanya Tucker - Memory Like I'm Gonna Be, A
TTITLE9=Pinmonkey - Fly
TTITLE10=Kevin Denney - It'll Go Away
TTITLE11=Chalee Tennison - Lonesome Road
TTITLE12=Brad Martin - Rub Me The Right Way
TTITLE13=Tommy Shane Steiner - What We're Gonna Do About It
EXTD=
EXTT0=
EXTT1=
EXTT2=
EXTT3=
EXTT4=
EXTT5=
EXTT6=
EXTT7=
EXTT8=
EXTT9=
EXTT10=
EXTT11=
EXTT12=
EXTT13=
PLAYORDER=
